<?xml version="1.0" standalone="no"?>
 <!DOCTYPE svg PUBLIC "-//W3C//DTD SVG 1.1//EN" 
 "http://www.w3.org/Graphics/SVG/1.1/DTD/svg11.dtd"> 
<svg
  xmlns:svg="http://www.w3.org/2000/svg"
  xmlns="http://www.w3.org/2000/svg"
  xmlns:xlink="http://www.w3.org/1999/xlink"
  version="1.1"
  width="21.000720cm" height="29.700220cm" viewBox="0 0 82680 116930">
<title>SVG Picture created as SBBMicro.svg date 2022/04/14 15:47:37 </title>
  <desc>Picture generated by Eeschema-SVG </desc>
<g style="fill:#000000; fill-opacity:1.000000;stroke:#000000; stroke-opacity:1.000000;
stroke-linecap:round; stroke-linejoin:round;"
 transform="translate(0 0) scale(1 1)">
</g>
<g style="fill:#840000; fill-opacity:0.0; 
stroke:#840000; stroke-width:0.000000; stroke-opacity:1; 
stroke-linecap:round; stroke-linejoin:round;">
</g>
<g style="fill:#840000; fill-opacity:0.0; 
stroke:#840000; stroke-width:60.000000; stroke-opacity:1; 
stroke-linecap:round; stroke-linejoin:round;">
<rect x="35435.905512" y="99607.165354" width="42519.685039" height="12598.425197" rx="0.000000" />
<rect x="3937.007874" y="3937.007874" width="74805.984252" height="109055.984252" rx="0.000000" />
<rect x="4724.409449" y="4724.409449" width="73231.181102" height="107481.181102" rx="0.000000" />
<path d="M23622 4724
L23622 3937
" />
<path d="M43307 4724
L43307 3937
" />
<path d="M62992 4724
L62992 3937
" />
<text x="13779.527559" y="4586.614173"
textLength="549.960630" font-size="682.401575" lengthAdjust="spacingAndGlyphs"
text-anchor="start" opacity="0">1</text>
<g class="stroked-text"><desc>1</desc>
<path d="M14199 4562
L13907 4562
" />
<path d="M14053 4562
L14053 4050
L14004 4123
L13955 4172
L13907 4196
" />
</g><text x="33464.566929" y="4586.614173"
textLength="547.440945" font-size="682.401575" lengthAdjust="spacingAndGlyphs"
text-anchor="start" opacity="0">2</text>
<g class="stroked-text"><desc>2</desc>
<path d="M33592 4099
L33616 4074
L33665 4050
L33787 4050
L33835 4074
L33860 4099
L33884 4147
L33884 4196
L33860 4269
L33567 4562
L33884 4562
" />
</g><text x="53149.606299" y="4586.614173"
textLength="547.440945" font-size="682.401575" lengthAdjust="spacingAndGlyphs"
text-anchor="start" opacity="0">3</text>
<g class="stroked-text"><desc>3</desc>
<path d="M53252 4050
L53569 4050
L53398 4245
L53472 4245
L53520 4269
L53545 4294
L53569 4342
L53569 4464
L53545 4513
L53520 4537
L53472 4562
L53325 4562
L53277 4537
L53252 4513
" />
</g><text x="72834.645669" y="4586.614173"
textLength="547.440945" font-size="682.401575" lengthAdjust="spacingAndGlyphs"
text-anchor="start" opacity="0">4</text>
<g class="stroked-text"><desc>4</desc>
<path d="M73205 4221
L73205 4562
" />
<path d="M73083 4026
L72962 4391
L73278 4391
" />
</g><path d="M23622 112205
L23622 112992
" />
<path d="M43307 112205
L43307 112992
" />
<path d="M62992 112205
L62992 112992
" />
<text x="13779.527559" y="112855.196850"
textLength="547.440945" font-size="682.401575" lengthAdjust="spacingAndGlyphs"
text-anchor="start" opacity="0">1</text>
<g class="stroked-text"><desc>1</desc>
<path d="M14199 112830
L13907 112830
" />
<path d="M14053 112830
L14053 112318
L14004 112392
L13955 112440
L13907 112465
" />
</g><text x="33464.566929" y="112855.196850"
textLength="547.440945" font-size="682.401575" lengthAdjust="spacingAndGlyphs"
text-anchor="start" opacity="0">2</text>
<g class="stroked-text"><desc>2</desc>
<path d="M33592 112367
L33616 112343
L33665 112318
L33787 112318
L33835 112343
L33860 112367
L33884 112416
L33884 112465
L33860 112538
L33567 112830
L33884 112830
" />
</g><text x="53149.606299" y="112855.196850"
textLength="547.440945" font-size="682.401575" lengthAdjust="spacingAndGlyphs"
text-anchor="start" opacity="0">3</text>
<g class="stroked-text"><desc>3</desc>
<path d="M53252 112318
L53569 112318
L53398 112513
L53472 112513
L53520 112538
L53545 112562
L53569 112611
L53569 112733
L53545 112782
L53520 112806
L53472 112830
L53325 112830
L53277 112806
L53252 112782
" />
</g><text x="72834.645669" y="112855.196850"
textLength="547.440945" font-size="682.401575" lengthAdjust="spacingAndGlyphs"
text-anchor="start" opacity="0">4</text>
<g class="stroked-text"><desc>4</desc>
<path d="M73205 112489
L73205 112830
" />
<path d="M73083 112294
L72962 112660
L73278 112660
" />
</g><path d="M3937 23622
L4724 23622
" />
<path d="M3937 43307
L4724 43307
" />
<path d="M3937 62992
L4724 62992
" />
<path d="M3937 82677
L4724 82677
" />
<path d="M3937 102362
L4724 102362
" />
<text x="4330.708661" y="14035.433071"
textLength="498.700787" font-size="682.401575" lengthAdjust="spacingAndGlyphs"
text-anchor="middle" opacity="0">A</text>
<g class="stroked-text"><desc>A</desc>
<path d="M4208 13864
L4452 13864
" />
<path d="M4160 14011
L4330 13499
L4501 14011
" />
</g><text x="4330.708661" y="33720.472441"
textLength="571.811024" font-size="682.401575" lengthAdjust="spacingAndGlyphs"
text-anchor="middle" opacity="0">B</text>
<g class="stroked-text"><desc>B</desc>
<path d="M4367 33427
L4440 33452
L4464 33476
L4489 33525
L4489 33598
L4464 33647
L4440 33671
L4391 33696
L4196 33696
L4196 33184
L4367 33184
L4415 33208
L4440 33233
L4464 33281
L4464 33330
L4440 33379
L4415 33403
L4367 33427
L4196 33427
" />
</g><text x="4330.708661" y="53405.511811"
textLength="571.811024" font-size="682.401575" lengthAdjust="spacingAndGlyphs"
text-anchor="middle" opacity="0">C</text>
<g class="stroked-text"><desc>C</desc>
<path d="M4489 53332
L4464 53356
L4391 53381
L4342 53381
L4269 53356
L4221 53307
L4196 53259
L4172 53161
L4172 53088
L4196 52991
L4221 52942
L4269 52893
L4342 52869
L4391 52869
L4464 52893
L4489 52918
" />
</g><text x="4330.708661" y="73090.551181"
textLength="571.811024" font-size="682.401575" lengthAdjust="spacingAndGlyphs"
text-anchor="middle" opacity="0">D</text>
<g class="stroked-text"><desc>D</desc>
<path d="M4196 73066
L4196 72554
L4318 72554
L4391 72578
L4440 72627
L4464 72676
L4489 72773
L4489 72846
L4464 72944
L4440 72993
L4391 73041
L4318 73066
L4196 73066
" />
</g><text x="4330.708661" y="92775.590551"
textLength="523.070866" font-size="682.401575" lengthAdjust="spacingAndGlyphs"
text-anchor="middle" opacity="0">E</text>
<g class="stroked-text"><desc>E</desc>
<path d="M4221 92483
L4391 92483
" />
<path d="M4464 92751
L4221 92751
L4221 92239
L4464 92239
" />
</g><text x="4330.708661" y="112460.629921"
textLength="498.700787" font-size="682.401575" lengthAdjust="spacingAndGlyphs"
text-anchor="middle" opacity="0">F</text>
<g class="stroked-text"><desc>F</desc>
<path d="M4403 112168
L4233 112168
" />
<path d="M4233 112436
L4233 111924
L4476 111924
" />
</g><path d="M78742 23622
L77955 23622
" />
<path d="M78742 43307
L77955 43307
" />
<path d="M78742 62992
L77955 62992
" />
<path d="M78742 82677
L77955 82677
" />
<path d="M78742 102362
L77955 102362
" />
<text x="78349.291339" y="14035.433071"
textLength="498.700787" font-size="682.401575" lengthAdjust="spacingAndGlyphs"
text-anchor="middle" opacity="0">A</text>
<g class="stroked-text"><desc>A</desc>
<path d="M78227 13864
L78471 13864
" />
<path d="M78178 14011
L78349 13499
L78519 14011
" />
</g><text x="78349.291339" y="33720.472441"
textLength="571.811024" font-size="682.401575" lengthAdjust="spacingAndGlyphs"
text-anchor="middle" opacity="0">B</text>
<g class="stroked-text"><desc>B</desc>
<path d="M78385 33427
L78458 33452
L78483 33476
L78507 33525
L78507 33598
L78483 33647
L78458 33671
L78410 33696
L78215 33696
L78215 33184
L78385 33184
L78434 33208
L78458 33233
L78483 33281
L78483 33330
L78458 33379
L78434 33403
L78385 33427
L78215 33427
" />
</g><text x="78349.291339" y="53405.511811"
textLength="571.811024" font-size="682.401575" lengthAdjust="spacingAndGlyphs"
text-anchor="middle" opacity="0">C</text>
<g class="stroked-text"><desc>C</desc>
<path d="M78507 53332
L78483 53356
L78410 53381
L78361 53381
L78288 53356
L78239 53307
L78215 53259
L78190 53161
L78190 53088
L78215 52991
L78239 52942
L78288 52893
L78361 52869
L78410 52869
L78483 52893
L78507 52918
" />
</g><text x="78349.291339" y="73090.551181"
textLength="571.811024" font-size="682.401575" lengthAdjust="spacingAndGlyphs"
text-anchor="middle" opacity="0">D</text>
<g class="stroked-text"><desc>D</desc>
<path d="M78215 73066
L78215 72554
L78337 72554
L78410 72578
L78458 72627
L78483 72676
L78507 72773
L78507 72846
L78483 72944
L78458 72993
L78410 73041
L78337 73066
L78215 73066
" />
</g><text x="78349.291339" y="92775.590551"
textLength="523.070866" font-size="682.401575" lengthAdjust="spacingAndGlyphs"
text-anchor="middle" opacity="0">E</text>
<g class="stroked-text"><desc>E</desc>
<path d="M78239 92483
L78410 92483
" />
<path d="M78483 92751
L78239 92751
L78239 92239
L78483 92239
" />
</g><text x="78349.291339" y="112460.629921"
textLength="498.700787" font-size="682.401575" lengthAdjust="spacingAndGlyphs"
text-anchor="middle" opacity="0">F</text>
<g class="stroked-text"><desc>F</desc>
<path d="M78422 112168
L78251 112168
" />
<path d="M78251 112436
L78251 111924
L78495 111924
" />
</g><text x="44491.023622" y="110571.732283"
textLength="8721.417323" font-size="787.401575" lengthAdjust="spacingAndGlyphs"
text-anchor="start" opacity="0">Date: 2022-04-13</text>
<g class="stroked-text"><desc>Date: 2022-04-13</desc>
<path d="M44661 110543
L44661 109953
L44802 109953
L44886 109981
L44942 110037
L44970 110093
L44999 110206
L44999 110290
L44970 110402
L44942 110459
L44886 110515
L44802 110543
L44661 110543
" />
<path d="M45505 110543
L45505 110234
L45477 110178
L45420 110149
L45308 110149
L45252 110178
" />
<path d="M45505 110515
L45449 110543
L45308 110543
L45252 110515
L45224 110459
L45224 110402
L45252 110346
L45308 110318
L45449 110318
L45505 110290
" />
<path d="M45702 110149
L45927 110149
" />
<path d="M45786 109953
L45786 110459
L45814 110515
L45870 110543
L45927 110543
" />
<path d="M46348 110515
L46292 110543
L46180 110543
L46123 110515
L46095 110459
L46095 110234
L46123 110178
L46180 110149
L46292 110149
L46348 110178
L46377 110234
L46377 110290
L46095 110346
" />
<path d="M46630 110487
L46658 110515
L46630 110543
L46602 110515
L46630 110487
L46630 110543
" />
<path d="M46630 110178
L46658 110206
L46630 110234
L46602 110206
L46630 110178
L46630 110234
" />
<path d="M47333 110009
L47361 109981
L47417 109953
L47558 109953
L47614 109981
L47642 110009
L47670 110065
L47670 110121
L47642 110206
L47305 110543
L47670 110543
" />
<path d="M48036 109953
L48092 109953
L48148 109981
L48176 110009
L48204 110065
L48233 110178
L48233 110318
L48204 110431
L48176 110487
L48148 110515
L48092 110543
L48036 110543
L47979 110515
L47951 110487
L47923 110431
L47895 110318
L47895 110178
L47923 110065
L47951 110009
L47979 109981
L48036 109953
" />
<path d="M48458 110009
L48486 109981
L48542 109953
L48682 109953
L48739 109981
L48767 110009
L48795 110065
L48795 110121
L48767 110206
L48429 110543
L48795 110543
" />
<path d="M49020 110009
L49048 109981
L49104 109953
L49245 109953
L49301 109981
L49329 110009
L49357 110065
L49357 110121
L49329 110206
L48992 110543
L49357 110543
" />
<path d="M49610 110318
L50060 110318
" />
<path d="M50454 109953
L50510 109953
L50567 109981
L50595 110009
L50623 110065
L50651 110178
L50651 110318
L50623 110431
L50595 110487
L50567 110515
L50510 110543
L50454 110543
L50398 110515
L50370 110487
L50342 110431
L50314 110318
L50314 110178
L50342 110065
L50370 110009
L50398 109981
L50454 109953
" />
<path d="M51157 110149
L51157 110543
" />
<path d="M51017 109924
L50876 110346
L51242 110346
" />
<path d="M51467 110318
L51916 110318
" />
<path d="M52507 110543
L52170 110543
" />
<path d="M52338 110543
L52338 109953
L52282 110037
L52226 110093
L52170 110121
" />
<path d="M52704 109953
L53069 109953
L52873 110178
L52957 110178
L53013 110206
L53041 110234
L53069 110290
L53069 110431
L53041 110487
L53013 110515
L52957 110543
L52788 110543
L52732 110515
L52704 110487
" />
</g><path d="M35435 110827
L77955 110827
" />
<text x="35829.606299" y="111674.094488"
textLength="12236.614173" font-size="787.401575" lengthAdjust="spacingAndGlyphs"
text-anchor="start" opacity="0">KiCad E.D.A.  kicad (6.0.4)</text>
<g class="stroked-text"><desc>KiCad E.D.A.  kicad (6.0.4)</desc>
<path d="M36000 111645
L36000 111055
" />
<path d="M36337 111645
L36084 111308
" />
<path d="M36337 111055
L36000 111392
" />
<path d="M36590 111645
L36590 111252
" />
<path d="M36590 111055
L36562 111083
L36590 111111
L36618 111083
L36590 111055
L36590 111111
" />
<path d="M37209 111589
L37181 111617
L37096 111645
L37040 111645
L36956 111617
L36900 111561
L36871 111505
L36843 111392
L36843 111308
L36871 111196
L36900 111139
L36956 111083
L37040 111055
L37096 111055
L37181 111083
L37209 111111
" />
<path d="M37715 111645
L37715 111336
L37687 111280
L37631 111252
L37518 111252
L37462 111280
" />
<path d="M37715 111617
L37659 111645
L37518 111645
L37462 111617
L37434 111561
L37434 111505
L37462 111449
L37518 111420
L37659 111420
L37715 111392
" />
<path d="M38249 111645
L38249 111055
" />
<path d="M38249 111617
L38193 111645
L38081 111645
L38024 111617
L37996 111589
L37968 111533
L37968 111364
L37996 111308
L38024 111280
L38081 111252
L38193 111252
L38249 111280
" />
<path d="M38981 111336
L39177 111336
" />
<path d="M39262 111645
L38981 111645
L38981 111055
L39262 111055
" />
<path d="M39515 111589
L39543 111617
L39515 111645
L39487 111617
L39515 111589
L39515 111645
" />
<path d="M39796 111645
L39796 111055
L39937 111055
L40021 111083
L40077 111139
L40105 111196
L40134 111308
L40134 111392
L40105 111505
L40077 111561
L40021 111617
L39937 111645
L39796 111645
" />
<path d="M40387 111589
L40415 111617
L40387 111645
L40359 111617
L40387 111589
L40387 111645
" />
<path d="M40640 111477
L40921 111477
" />
<path d="M40584 111645
L40780 111055
L40977 111645
" />
<path d="M41174 111589
L41202 111617
L41174 111645
L41146 111617
L41174 111589
L41174 111645
" />
<path d="M42355 111645
L42355 111055
" />
<path d="M42411 111420
L42580 111645
" />
<path d="M42580 111252
L42355 111477
" />
<path d="M42833 111645
L42833 111252
" />
<path d="M42833 111055
L42805 111083
L42833 111111
L42861 111083
L42833 111055
L42833 111111
" />
<path d="M43368 111617
L43311 111645
L43199 111645
L43143 111617
L43114 111589
L43086 111533
L43086 111364
L43114 111308
L43143 111280
L43199 111252
L43311 111252
L43368 111280
" />
<path d="M43874 111645
L43874 111336
L43846 111280
L43789 111252
L43677 111252
L43621 111280
" />
<path d="M43874 111617
L43817 111645
L43677 111645
L43621 111617
L43592 111561
L43592 111505
L43621 111449
L43677 111420
L43817 111420
L43874 111392
" />
<path d="M44408 111645
L44408 111055
" />
<path d="M44408 111617
L44352 111645
L44239 111645
L44183 111617
L44155 111589
L44127 111533
L44127 111364
L44155 111308
L44183 111280
L44239 111252
L44352 111252
L44408 111280
" />
<path d="M45308 111870
L45280 111842
L45224 111758
L45195 111702
L45167 111617
L45139 111477
L45139 111364
L45167 111224
L45195 111139
L45224 111083
L45280 110999
L45308 110971
" />
<path d="M45786 111055
L45673 111055
L45617 111083
L45589 111111
L45533 111196
L45505 111308
L45505 111533
L45533 111589
L45561 111617
L45617 111645
L45730 111645
L45786 111617
L45814 111589
L45842 111533
L45842 111392
L45814 111336
L45786 111308
L45730 111280
L45617 111280
L45561 111308
L45533 111336
L45505 111392
" />
<path d="M46095 111589
L46123 111617
L46095 111645
L46067 111617
L46095 111589
L46095 111645
" />
<path d="M46489 111055
L46545 111055
L46602 111083
L46630 111111
L46658 111167
L46686 111280
L46686 111420
L46658 111533
L46630 111589
L46602 111617
L46545 111645
L46489 111645
L46433 111617
L46405 111589
L46377 111533
L46348 111420
L46348 111280
L46377 111167
L46405 111111
L46433 111083
L46489 111055
" />
<path d="M46939 111589
L46967 111617
L46939 111645
L46911 111617
L46939 111589
L46939 111645
" />
<path d="M47473 111252
L47473 111645
" />
<path d="M47333 111027
L47192 111449
L47558 111449
" />
<path d="M47726 111870
L47754 111842
L47811 111758
L47839 111702
L47867 111617
L47895 111477
L47895 111364
L47867 111224
L47839 111139
L47811 111083
L47754 110999
L47726 110971
" />
</g><path d="M35435 109646
L77955 109646
" />
</g>
<g style="fill:#840000; fill-opacity:0.0; 
stroke:#840000; stroke-width:118.110236; stroke-opacity:1; 
stroke-linecap:round; stroke-linejoin:round;">
<text x="69294.173228" y="110571.732283"
textLength="2900.275591" font-size="787.401575" lengthAdjust="spacingAndGlyphs"
text-anchor="start" opacity="0">Rev: 1</text>
<g class="stroked-text"><desc>Rev: 1</desc>
<path d="M69848 110543
L69652 110262
" />
<path d="M69511 110543
L69511 109953
L69736 109953
L69792 109981
L69820 110009
L69848 110065
L69848 110149
L69820 110206
L69792 110234
L69736 110262
L69511 110262
" />
<path d="M70327 110515
L70270 110543
L70158 110543
L70102 110515
L70073 110459
L70073 110234
L70102 110178
L70158 110149
L70270 110149
L70327 110178
L70355 110234
L70355 110290
L70073 110346
" />
<path d="M70552 110149
L70692 110543
L70833 110149
" />
<path d="M71058 110487
L71086 110515
L71058 110543
L71030 110515
L71058 110487
L71058 110543
" />
<path d="M71058 110178
L71086 110206
L71058 110234
L71030 110206
L71058 110178
L71058 110234
" />
<path d="M72098 110543
L71761 110543
" />
<path d="M71930 110543
L71930 109953
L71873 110037
L71817 110093
L71761 110121
" />
</g></g>
<g style="fill:#840000; fill-opacity:0.0; 
stroke:#840000; stroke-width:60.000000; stroke-opacity:1; 
stroke-linecap:round; stroke-linejoin:round;">
<text x="35829.606299" y="110571.732283"
textLength="3781.220472" font-size="787.401575" lengthAdjust="spacingAndGlyphs"
text-anchor="start" opacity="0">Size: A4</text>
<g class="stroked-text"><desc>Size: A4</desc>
<path d="M35972 110515
L36056 110543
L36197 110543
L36253 110515
L36281 110487
L36309 110431
L36309 110374
L36281 110318
L36253 110290
L36197 110262
L36084 110234
L36028 110206
L36000 110178
L35972 110121
L35972 110065
L36000 110009
L36028 109981
L36084 109953
L36225 109953
L36309 109981
" />
<path d="M36562 110543
L36562 110149
" />
<path d="M36562 109953
L36534 109981
L36562 110009
L36590 109981
L36562 109953
L36562 110009
" />
<path d="M36787 110149
L37096 110149
L36787 110543
L37096 110543
" />
<path d="M37546 110515
L37490 110543
L37378 110543
L37321 110515
L37293 110459
L37293 110234
L37321 110178
L37378 110149
L37490 110149
L37546 110178
L37575 110234
L37575 110290
L37293 110346
" />
<path d="M37828 110487
L37856 110515
L37828 110543
L37799 110515
L37828 110487
L37828 110543
" />
<path d="M37828 110178
L37856 110206
L37828 110234
L37799 110206
L37828 110178
L37828 110234
" />
<path d="M38531 110374
L38812 110374
" />
<path d="M38474 110543
L38671 109953
L38868 110543
" />
<path d="M39318 110149
L39318 110543
" />
<path d="M39177 109924
L39037 110346
L39402 110346
" />
</g><text x="69294.173228" y="111674.094488"
textLength="3350.196850" font-size="787.401575" lengthAdjust="spacingAndGlyphs"
text-anchor="start" opacity="0">Id: 1/3</text>
<g class="stroked-text"><desc>Id: 1/3</desc>
<path d="M69464 111645
L69464 111055
" />
<path d="M69999 111645
L69999 111055
" />
<path d="M69999 111617
L69942 111645
L69830 111645
L69774 111617
L69745 111589
L69717 111533
L69717 111364
L69745 111308
L69774 111280
L69830 111252
L69942 111252
L69999 111280
" />
<path d="M70280 111589
L70308 111617
L70280 111645
L70252 111617
L70280 111589
L70280 111645
" />
<path d="M70280 111280
L70308 111308
L70280 111336
L70252 111308
L70280 111280
L70280 111336
" />
<path d="M71320 111645
L70983 111645
" />
<path d="M71152 111645
L71152 111055
L71095 111139
L71039 111196
L70983 111224
" />
<path d="M71995 111027
L71489 111786
" />
<path d="M72136 111055
L72501 111055
L72305 111280
L72389 111280
L72445 111308
L72473 111336
L72501 111392
L72501 111533
L72473 111589
L72445 111617
L72389 111645
L72220 111645
L72164 111617
L72136 111589
" />
</g><path d="M35435 108071
L77955 108071
" />
</g>
<g style="fill:#840000; fill-opacity:0.0; 
stroke:#840000; stroke-width:157.480315; stroke-opacity:1; 
stroke-linecap:round; stroke-linejoin:round;">
<text x="35829.606299" y="109174.094488"
textLength="10417.204724" font-size="1049.842520" lengthAdjust="spacingAndGlyphs"
text-anchor="start" opacity="0">Title: Schematics</text>
<g class="stroked-text"><desc>Title: Schematics</desc>
<path d="M36110 108349
L36560 108349
" />
<path d="M36236 109136
L36335 108349
" />
<path d="M36724 109136
L36789 108611
" />
<path d="M36822 108349
L36780 108386
L36813 108424
L36855 108386
L36822 108349
L36813 108424
" />
<path d="M37052 108611
L37352 108611
" />
<path d="M37197 108349
L37113 109024
L37141 109099
L37211 109136
L37286 109136
" />
<path d="M37661 109136
L37591 109099
L37562 109024
L37647 108349
" />
<path d="M38266 109099
L38186 109136
L38036 109136
L37966 109099
L37937 109024
L37975 108724
L38022 108649
L38102 108611
L38251 108611
L38322 108649
L38350 108724
L38341 108799
L37956 108874
" />
<path d="M38645 109061
L38678 109099
L38636 109136
L38603 109099
L38645 109061
L38636 109136
" />
<path d="M38697 108649
L38730 108686
L38687 108724
L38655 108686
L38697 108649
L38687 108724
" />
<path d="M39578 109099
L39686 109136
L39873 109136
L39953 109099
L39995 109061
L40042 108986
L40051 108911
L40023 108836
L39990 108799
L39920 108761
L39775 108724
L39704 108686
L39672 108649
L39643 108574
L39653 108499
L39700 108424
L39742 108386
L39822 108349
L40009 108349
L40117 108386
" />
<path d="M40703 109099
L40623 109136
L40473 109136
L40403 109099
L40370 109061
L40342 108986
L40370 108761
L40417 108686
L40459 108649
L40539 108611
L40689 108611
L40759 108649
" />
<path d="M41035 109136
L41134 108349
" />
<path d="M41373 109136
L41425 108724
L41396 108649
L41326 108611
L41214 108611
L41134 108649
L41092 108686
" />
<path d="M42053 109099
L41973 109136
L41823 109136
L41753 109099
L41724 109024
L41762 108724
L41809 108649
L41889 108611
L42039 108611
L42109 108649
L42137 108724
L42128 108799
L41743 108874
" />
<path d="M42423 109136
L42488 108611
" />
<path d="M42479 108686
L42521 108649
L42601 108611
L42713 108611
L42784 108649
L42812 108724
L42760 109136
" />
<path d="M42812 108724
L42859 108649
L42938 108611
L43051 108611
L43121 108649
L43149 108724
L43098 109136
" />
<path d="M43810 109136
L43862 108724
L43834 108649
L43763 108611
L43613 108611
L43534 108649
" />
<path d="M43815 109099
L43735 109136
L43548 109136
L43477 109099
L43449 109024
L43459 108949
L43505 108874
L43585 108836
L43773 108836
L43852 108799
" />
<path d="M44138 108611
L44438 108611
" />
<path d="M44284 108349
L44199 109024
L44227 109099
L44298 109136
L44373 109136
" />
<path d="M44635 109136
L44701 108611
" />
<path d="M44733 108349
L44691 108386
L44724 108424
L44766 108386
L44733 108349
L44724 108424
" />
<path d="M45352 109099
L45272 109136
L45122 109136
L45052 109099
L45019 109061
L44991 108986
L45019 108761
L45066 108686
L45108 108649
L45188 108611
L45338 108611
L45408 108649
" />
<path d="M45652 109099
L45722 109136
L45872 109136
L45952 109099
L45999 109024
L46004 108986
L45976 108911
L45905 108874
L45793 108874
L45722 108836
L45694 108761
L45699 108724
L45746 108649
L45826 108611
L45938 108611
L46008 108649
" />
</g></g>
<g style="fill:#840000; fill-opacity:0.0; 
stroke:#840000; stroke-width:60.000000; stroke-opacity:1; 
stroke-linecap:round; stroke-linejoin:round;">
<text x="35829.606299" y="107658.346457"
textLength="11228.346457" font-size="787.401575" lengthAdjust="spacingAndGlyphs"
text-anchor="start" opacity="0">File: SBBMicro.kicad_sch</text>
<g class="stroked-text"><desc>File: SBBMicro.kicad_sch</desc>
<path d="M36197 107320
L36000 107320
" />
<path d="M36000 107630
L36000 107039
L36281 107039
" />
<path d="M36506 107630
L36506 107236
" />
<path d="M36506 107039
L36478 107067
L36506 107095
L36534 107067
L36506 107039
L36506 107095
" />
<path d="M36871 107630
L36815 107602
L36787 107545
L36787 107039
" />
<path d="M37321 107602
L37265 107630
L37153 107630
L37096 107602
L37068 107545
L37068 107320
L37096 107264
L37153 107236
L37265 107236
L37321 107264
L37350 107320
L37350 107377
L37068 107433
" />
<path d="M37603 107573
L37631 107602
L37603 107630
L37575 107602
L37603 107573
L37603 107630
" />
<path d="M37603 107264
L37631 107292
L37603 107320
L37575 107292
L37603 107264
L37603 107320
" />
<path d="M38306 107602
L38390 107630
L38531 107630
L38587 107602
L38615 107573
L38643 107517
L38643 107461
L38615 107405
L38587 107377
L38531 107348
L38418 107320
L38362 107292
L38334 107264
L38306 107208
L38306 107152
L38334 107095
L38362 107067
L38418 107039
L38559 107039
L38643 107067
" />
<path d="M39093 107320
L39177 107348
L39206 107377
L39234 107433
L39234 107517
L39206 107573
L39177 107602
L39121 107630
L38896 107630
L38896 107039
L39093 107039
L39149 107067
L39177 107095
L39206 107152
L39206 107208
L39177 107264
L39149 107292
L39093 107320
L38896 107320
" />
<path d="M39684 107320
L39768 107348
L39796 107377
L39824 107433
L39824 107517
L39796 107573
L39768 107602
L39712 107630
L39487 107630
L39487 107039
L39684 107039
L39740 107067
L39768 107095
L39796 107152
L39796 107208
L39768 107264
L39740 107292
L39684 107320
L39487 107320
" />
<path d="M40077 107630
L40077 107039
L40274 107461
L40471 107039
L40471 107630
" />
<path d="M40752 107630
L40752 107236
" />
<path d="M40752 107039
L40724 107067
L40752 107095
L40780 107067
L40752 107039
L40752 107095
" />
<path d="M41287 107602
L41230 107630
L41118 107630
L41062 107602
L41033 107573
L41005 107517
L41005 107348
L41033 107292
L41062 107264
L41118 107236
L41230 107236
L41287 107264
" />
<path d="M41540 107630
L41540 107236
" />
<path d="M41540 107348
L41568 107292
L41596 107264
L41652 107236
L41708 107236
" />
<path d="M41990 107630
L41933 107602
L41905 107573
L41877 107517
L41877 107348
L41905 107292
L41933 107264
L41990 107236
L42074 107236
L42130 107264
L42158 107292
L42186 107348
L42186 107517
L42158 107573
L42130 107602
L42074 107630
L41990 107630
" />
<path d="M42440 107573
L42468 107602
L42440 107630
L42411 107602
L42440 107573
L42440 107630
" />
<path d="M42721 107630
L42721 107039
" />
<path d="M42777 107405
L42946 107630
" />
<path d="M42946 107236
L42721 107461
" />
<path d="M43199 107630
L43199 107236
" />
<path d="M43199 107039
L43171 107067
L43199 107095
L43227 107067
L43199 107039
L43199 107095
" />
<path d="M43733 107602
L43677 107630
L43564 107630
L43508 107602
L43480 107573
L43452 107517
L43452 107348
L43480 107292
L43508 107264
L43564 107236
L43677 107236
L43733 107264
" />
<path d="M44239 107630
L44239 107320
L44211 107264
L44155 107236
L44042 107236
L43986 107264
" />
<path d="M44239 107602
L44183 107630
L44042 107630
L43986 107602
L43958 107545
L43958 107489
L43986 107433
L44042 107405
L44183 107405
L44239 107377
" />
<path d="M44774 107630
L44774 107039
" />
<path d="M44774 107602
L44717 107630
L44605 107630
L44549 107602
L44521 107573
L44492 107517
L44492 107348
L44521 107292
L44549 107264
L44605 107236
L44717 107236
L44774 107264
" />
<path d="M44914 107686
L45364 107686
" />
<path d="M45477 107602
L45533 107630
L45645 107630
L45702 107602
L45730 107545
L45730 107517
L45702 107461
L45645 107433
L45561 107433
L45505 107405
L45477 107348
L45477 107320
L45505 107264
L45561 107236
L45645 107236
L45702 107264
" />
<path d="M46236 107602
L46180 107630
L46067 107630
L46011 107602
L45983 107573
L45955 107517
L45955 107348
L45983 107292
L46011 107264
L46067 107236
L46180 107236
L46236 107264
" />
<path d="M46489 107630
L46489 107039
" />
<path d="M46742 107630
L46742 107320
L46714 107264
L46658 107236
L46573 107236
L46517 107264
L46489 107292
" />
</g><path d="M35435 105709
L77955 105709
" />
<text x="35829.606299" y="106595.354331"
textLength="3856.417323" font-size="787.401575" lengthAdjust="spacingAndGlyphs"
text-anchor="start" opacity="0">Sheet: /</text>
<g class="stroked-text"><desc>Sheet: /</desc>
<path d="M35972 106539
L36056 106567
L36197 106567
L36253 106539
L36281 106510
L36309 106454
L36309 106398
L36281 106342
L36253 106314
L36197 106285
L36084 106257
L36028 106229
L36000 106201
L35972 106145
L35972 106089
L36000 106032
L36028 106004
L36084 105976
L36225 105976
L36309 106004
" />
<path d="M36562 106567
L36562 105976
" />
<path d="M36815 106567
L36815 106257
L36787 106201
L36731 106173
L36647 106173
L36590 106201
L36562 106229
" />
<path d="M37321 106539
L37265 106567
L37153 106567
L37096 106539
L37068 106482
L37068 106257
L37096 106201
L37153 106173
L37265 106173
L37321 106201
L37350 106257
L37350 106314
L37068 106370
" />
<path d="M37828 106539
L37771 106567
L37659 106567
L37603 106539
L37575 106482
L37575 106257
L37603 106201
L37659 106173
L37771 106173
L37828 106201
L37856 106257
L37856 106314
L37575 106370
" />
<path d="M38024 106173
L38249 106173
" />
<path d="M38109 105976
L38109 106482
L38137 106539
L38193 106567
L38249 106567
" />
<path d="M38446 106510
L38474 106539
L38446 106567
L38418 106539
L38446 106510
L38446 106567
" />
<path d="M38446 106201
L38474 106229
L38446 106257
L38418 106229
L38446 106201
L38446 106257
" />
<path d="M39599 105948
L39093 106707
" />
</g></g>
<g style="fill:#840000; fill-opacity:0.0; 
stroke:#840000; stroke-width:118.110236; stroke-opacity:1; 
stroke-linecap:round; stroke-linejoin:round;">
<text x="35829.606299" y="105414.251969"
textLength="9311.968504" font-size="787.401575" lengthAdjust="spacingAndGlyphs"
text-anchor="start" opacity="0">University of Padova</text>
<g class="stroked-text"><desc>University of Padova</desc>
<path d="M36046 104795
L36046 105273
L36075 105329
L36103 105357
L36159 105386
L36271 105386
L36328 105357
L36356 105329
L36384 105273
L36384 104795
" />
<path d="M36665 104992
L36665 105386
" />
<path d="M36665 105048
L36693 105020
L36750 104992
L36834 104992
L36890 105020
L36918 105076
L36918 105386
" />
<path d="M37199 105386
L37199 104992
" />
<path d="M37199 104795
L37171 104823
L37199 104851
L37228 104823
L37199 104795
L37199 104851
" />
<path d="M37424 104992
L37565 105386
L37706 104992
" />
<path d="M38156 105357
L38099 105386
L37987 105386
L37931 105357
L37902 105301
L37902 105076
L37931 105020
L37987 104992
L38099 104992
L38156 105020
L38184 105076
L38184 105133
L37902 105189
" />
<path d="M38437 105386
L38437 104992
" />
<path d="M38437 105104
L38465 105048
L38493 105020
L38549 104992
L38606 104992
" />
<path d="M38774 105357
L38830 105386
L38943 105386
L38999 105357
L39027 105301
L39027 105273
L38999 105217
L38943 105189
L38859 105189
L38802 105161
L38774 105104
L38774 105076
L38802 105020
L38859 104992
L38943 104992
L38999 105020
" />
<path d="M39280 105386
L39280 104992
" />
<path d="M39280 104795
L39252 104823
L39280 104851
L39309 104823
L39280 104795
L39280 104851
" />
<path d="M39477 104992
L39702 104992
" />
<path d="M39562 104795
L39562 105301
L39590 105357
L39646 105386
L39702 105386
" />
<path d="M39843 104992
L39983 105386
" />
<path d="M40124 104992
L39983 105386
L39927 105526
L39899 105554
L39843 105582
" />
<path d="M40883 105386
L40827 105357
L40799 105329
L40771 105273
L40771 105104
L40799 105048
L40827 105020
L40883 104992
L40968 104992
L41024 105020
L41052 105048
L41080 105104
L41080 105273
L41052 105329
L41024 105357
L40968 105386
L40883 105386
" />
<path d="M41249 104992
L41474 104992
" />
<path d="M41333 105386
L41333 104879
L41361 104823
L41418 104795
L41474 104795
" />
<path d="M42121 105386
L42121 104795
L42346 104795
L42402 104823
L42430 104851
L42458 104908
L42458 104992
L42430 105048
L42402 105076
L42346 105104
L42121 105104
" />
<path d="M42964 105386
L42964 105076
L42936 105020
L42880 104992
L42767 104992
L42711 105020
" />
<path d="M42964 105357
L42908 105386
L42767 105386
L42711 105357
L42683 105301
L42683 105245
L42711 105189
L42767 105161
L42908 105161
L42964 105133
" />
<path d="M43499 105386
L43499 104795
" />
<path d="M43499 105357
L43442 105386
L43330 105386
L43274 105357
L43246 105329
L43217 105273
L43217 105104
L43246 105048
L43274 105020
L43330 104992
L43442 104992
L43499 105020
" />
<path d="M43864 105386
L43808 105357
L43780 105329
L43752 105273
L43752 105104
L43780 105048
L43808 105020
L43864 104992
L43949 104992
L44005 105020
L44033 105048
L44061 105104
L44061 105273
L44033 105329
L44005 105357
L43949 105386
L43864 105386
" />
<path d="M44258 104992
L44399 105386
L44539 104992
" />
<path d="M45017 105386
L45017 105076
L44989 105020
L44933 104992
L44820 104992
L44764 105020
" />
<path d="M45017 105357
L44961 105386
L44820 105386
L44764 105357
L44736 105301
L44736 105245
L44764 105189
L44820 105161
L44961 105161
L45017 105133
" />
</g></g>
<g style="fill:#840000; fill-opacity:0.0; 
stroke:#840000; stroke-width:60.000000; stroke-opacity:1; 
stroke-linecap:round; stroke-linejoin:round;">
<text x="35829.606299" y="104233.149606"
textLength="18038.818898" font-size="787.401575" lengthAdjust="spacingAndGlyphs"
text-anchor="start" opacity="0">Schematics of the selft-balancing bike</text>
<g class="stroked-text"><desc>Schematics of the selft-balancing bike</desc>
<path d="M35972 104176
L36056 104205
L36197 104205
L36253 104176
L36281 104148
L36309 104092
L36309 104036
L36281 103980
L36253 103951
L36197 103923
L36084 103895
L36028 103867
L36000 103839
L35972 103783
L35972 103726
L36000 103670
L36028 103642
L36084 103614
L36225 103614
L36309 103642
" />
<path d="M36815 104176
L36759 104205
L36647 104205
L36590 104176
L36562 104148
L36534 104092
L36534 103923
L36562 103867
L36590 103839
L36647 103811
L36759 103811
L36815 103839
" />
<path d="M37068 104205
L37068 103614
" />
<path d="M37321 104205
L37321 103895
L37293 103839
L37237 103811
L37153 103811
L37096 103839
L37068 103867
" />
<path d="M37828 104176
L37771 104205
L37659 104205
L37603 104176
L37575 104120
L37575 103895
L37603 103839
L37659 103811
L37771 103811
L37828 103839
L37856 103895
L37856 103951
L37575 104008
" />
<path d="M38109 104205
L38109 103811
" />
<path d="M38109 103867
L38137 103839
L38193 103811
L38278 103811
L38334 103839
L38362 103895
L38362 104205
" />
<path d="M38362 103895
L38390 103839
L38446 103811
L38531 103811
L38587 103839
L38615 103895
L38615 104205
" />
<path d="M39149 104205
L39149 103895
L39121 103839
L39065 103811
L38952 103811
L38896 103839
" />
<path d="M39149 104176
L39093 104205
L38952 104205
L38896 104176
L38868 104120
L38868 104064
L38896 104008
L38952 103980
L39093 103980
L39149 103951
" />
<path d="M39346 103811
L39571 103811
" />
<path d="M39431 103614
L39431 104120
L39459 104176
L39515 104205
L39571 104205
" />
<path d="M39768 104205
L39768 103811
" />
<path d="M39768 103614
L39740 103642
L39768 103670
L39796 103642
L39768 103614
L39768 103670
" />
<path d="M40302 104176
L40246 104205
L40134 104205
L40077 104176
L40049 104148
L40021 104092
L40021 103923
L40049 103867
L40077 103839
L40134 103811
L40246 103811
L40302 103839
" />
<path d="M40527 104176
L40584 104205
L40696 104205
L40752 104176
L40780 104120
L40780 104092
L40752 104036
L40696 104008
L40612 104008
L40555 103980
L40527 103923
L40527 103895
L40555 103839
L40612 103811
L40696 103811
L40752 103839
" />
<path d="M41568 104205
L41512 104176
L41483 104148
L41455 104092
L41455 103923
L41483 103867
L41512 103839
L41568 103811
L41652 103811
L41708 103839
L41736 103867
L41765 103923
L41765 104092
L41736 104148
L41708 104176
L41652 104205
L41568 104205
" />
<path d="M41933 103811
L42158 103811
" />
<path d="M42018 104205
L42018 103698
L42046 103642
L42102 103614
L42158 103614
" />
<path d="M42721 103811
L42946 103811
" />
<path d="M42805 103614
L42805 104120
L42833 104176
L42889 104205
L42946 104205
" />
<path d="M43143 104205
L43143 103614
" />
<path d="M43396 104205
L43396 103895
L43368 103839
L43311 103811
L43227 103811
L43171 103839
L43143 103867
" />
<path d="M43902 104176
L43846 104205
L43733 104205
L43677 104176
L43649 104120
L43649 103895
L43677 103839
L43733 103811
L43846 103811
L43902 103839
L43930 103895
L43930 103951
L43649 104008
" />
<path d="M44605 104176
L44661 104205
L44774 104205
L44830 104176
L44858 104120
L44858 104092
L44830 104036
L44774 104008
L44689 104008
L44633 103980
L44605 103923
L44605 103895
L44633 103839
L44689 103811
L44774 103811
L44830 103839
" />
<path d="M45336 104176
L45280 104205
L45167 104205
L45111 104176
L45083 104120
L45083 103895
L45111 103839
L45167 103811
L45280 103811
L45336 103839
L45364 103895
L45364 103951
L45083 104008
" />
<path d="M45702 104205
L45645 104176
L45617 104120
L45617 103614
" />
<path d="M45842 103811
L46067 103811
" />
<path d="M45927 104205
L45927 103698
L45955 103642
L46011 103614
L46067 103614
" />
<path d="M46180 103811
L46405 103811
" />
<path d="M46264 103614
L46264 104120
L46292 104176
L46348 104205
L46405 104205
" />
<path d="M46602 103980
L47051 103980
" />
<path d="M47333 104205
L47333 103614
" />
<path d="M47333 103839
L47389 103811
L47501 103811
L47558 103839
L47586 103867
L47614 103923
L47614 104092
L47586 104148
L47558 104176
L47501 104205
L47389 104205
L47333 104176
" />
<path d="M48120 104205
L48120 103895
L48092 103839
L48036 103811
L47923 103811
L47867 103839
" />
<path d="M48120 104176
L48064 104205
L47923 104205
L47867 104176
L47839 104120
L47839 104064
L47867 104008
L47923 103980
L48064 103980
L48120 103951
" />
<path d="M48486 104205
L48429 104176
L48401 104120
L48401 103614
" />
<path d="M48964 104205
L48964 103895
L48936 103839
L48879 103811
L48767 103811
L48711 103839
" />
<path d="M48964 104176
L48907 104205
L48767 104205
L48711 104176
L48682 104120
L48682 104064
L48711 104008
L48767 103980
L48907 103980
L48964 103951
" />
<path d="M49245 103811
L49245 104205
" />
<path d="M49245 103867
L49273 103839
L49329 103811
L49414 103811
L49470 103839
L49498 103895
L49498 104205
" />
<path d="M50032 104176
L49976 104205
L49864 104205
L49807 104176
L49779 104148
L49751 104092
L49751 103923
L49779 103867
L49807 103839
L49864 103811
L49976 103811
L50032 103839
" />
<path d="M50285 104205
L50285 103811
" />
<path d="M50285 103614
L50257 103642
L50285 103670
L50314 103642
L50285 103614
L50285 103670
" />
<path d="M50567 103811
L50567 104205
" />
<path d="M50567 103867
L50595 103839
L50651 103811
L50735 103811
L50792 103839
L50820 103895
L50820 104205
" />
<path d="M51354 103811
L51354 104289
L51326 104345
L51298 104373
L51242 104401
L51157 104401
L51101 104373
" />
<path d="M51354 104176
L51298 104205
L51185 104205
L51129 104176
L51101 104148
L51073 104092
L51073 103923
L51101 103867
L51129 103839
L51185 103811
L51298 103811
L51354 103839
" />
<path d="M52085 104205
L52085 103614
" />
<path d="M52085 103839
L52141 103811
L52254 103811
L52310 103839
L52338 103867
L52366 103923
L52366 104092
L52338 104148
L52310 104176
L52254 104205
L52141 104205
L52085 104176
" />
<path d="M52620 104205
L52620 103811
" />
<path d="M52620 103614
L52591 103642
L52620 103670
L52648 103642
L52620 103614
L52620 103670
" />
<path d="M52901 104205
L52901 103614
" />
<path d="M52957 103980
L53126 104205
" />
<path d="M53126 103811
L52901 104036
" />
<path d="M53604 104176
L53547 104205
L53435 104205
L53379 104176
L53351 104120
L53351 103895
L53379 103839
L53435 103811
L53547 103811
L53604 103839
L53632 103895
L53632 103951
L53351 104008
" />
</g><text x="35829.606299" y="103052.047244"
textLength="60.000000" font-size="787.401575" lengthAdjust="spacingAndGlyphs"
text-anchor="start" opacity="0"></text>
<g class="stroked-text"><desc></desc>
</g><text x="35829.606299" y="101870.944882"
textLength="60.000000" font-size="787.401575" lengthAdjust="spacingAndGlyphs"
text-anchor="start" opacity="0"></text>
<g class="stroked-text"><desc></desc>
</g><text x="35829.606299" y="100689.842520"
textLength="60.000000" font-size="787.401575" lengthAdjust="spacingAndGlyphs"
text-anchor="start" opacity="0"></text>
<g class="stroked-text"><desc></desc>
</g><path d="M43309 109646
L43309 110827
" />
<path d="M68506 109646
L68506 112205
" />
</g>
<g style="fill:#FFFFFF; fill-opacity:0.0; 
stroke:#FFFFFF; stroke-width:60.000000; stroke-opacity:1; 
stroke-linecap:round; stroke-linejoin:round;">
</g>
<g style="fill:#FFFFFF; fill-opacity:1.0; 
stroke:#FFFFFF; stroke-width:0.039370; stroke-opacity:1; 
stroke-linecap:round; stroke-linejoin:round;">
<rect x="8500.000000" y="10500.000000" width="65000.000000" height="37500.000000" rx="0.000000" />
</g>
<g style="fill:#840000; fill-opacity:1.0; 
stroke:#840000; stroke-width:0.039370; stroke-opacity:1; 
stroke-linecap:round; stroke-linejoin:round;">
</g>
<g style="fill:#840000; fill-opacity:0.0; 
stroke:#840000; stroke-width:60.000000; stroke-opacity:1; 
stroke-linecap:round; stroke-linejoin:round;">
<rect x="8500.000000" y="10500.000000" width="65000.000000" height="37500.000000" rx="0.000000" />
</g>
<g style="fill:#006464; fill-opacity:0.0; 
stroke:#006464; stroke-width:60.000000; stroke-opacity:1; 
stroke-linecap:round; stroke-linejoin:round;">
<text x="11150.314961" y="10067.322835"
textLength="5298.110236" font-size="666.653543" lengthAdjust="spacingAndGlyphs"
text-anchor="middle" opacity="0">LV-schematic</text>
<g class="stroked-text"><desc>LV-schematic</desc>
<path d="M8888 10043
L8650 10043
L8650 9543
" />
<path d="M8983 9543
L9150 10043
L9316 9543
" />
<path d="M9483 9853
L9864 9853
" />
<path d="M10078 10019
L10126 10043
L10221 10043
L10269 10019
L10293 9972
L10293 9948
L10269 9900
L10221 9876
L10150 9876
L10102 9853
L10078 9805
L10078 9781
L10102 9733
L10150 9710
L10221 9710
L10269 9733
" />
<path d="M10721 10019
L10674 10043
L10578 10043
L10531 10019
L10507 9995
L10483 9948
L10483 9805
L10507 9757
L10531 9733
L10578 9710
L10674 9710
L10721 9733
" />
<path d="M10936 10043
L10936 9543
" />
<path d="M11150 10043
L11150 9781
L11126 9733
L11078 9710
L11007 9710
L10959 9733
L10936 9757
" />
<path d="M11578 10019
L11531 10043
L11436 10043
L11388 10019
L11364 9972
L11364 9781
L11388 9733
L11436 9710
L11531 9710
L11578 9733
L11602 9781
L11602 9829
L11364 9876
" />
<path d="M11816 10043
L11816 9710
" />
<path d="M11816 9757
L11840 9733
L11888 9710
L11959 9710
L12007 9733
L12031 9781
L12031 10043
" />
<path d="M12031 9781
L12055 9733
L12102 9710
L12174 9710
L12221 9733
L12245 9781
L12245 10043
" />
<path d="M12697 10043
L12697 9781
L12674 9733
L12626 9710
L12531 9710
L12483 9733
" />
<path d="M12697 10019
L12650 10043
L12531 10043
L12483 10019
L12459 9972
L12459 9924
L12483 9876
L12531 9853
L12650 9853
L12697 9829
" />
<path d="M12864 9710
L13055 9710
" />
<path d="M12936 9543
L12936 9972
L12959 10019
L13007 10043
L13055 10043
" />
<path d="M13221 10043
L13221 9710
" />
<path d="M13221 9543
L13197 9567
L13221 9591
L13245 9567
L13221 9543
L13221 9591
" />
<path d="M13674 10019
L13626 10043
L13531 10043
L13483 10019
L13459 9995
L13436 9948
L13436 9805
L13459 9757
L13483 9733
L13531 9710
L13626 9710
L13674 9733
" />
</g></g>
<g style="fill:#725600; fill-opacity:0.0; 
stroke:#725600; stroke-width:60.000000; stroke-opacity:1; 
stroke-linecap:round; stroke-linejoin:round;">
<text x="14078.858268" y="48882.637795"
textLength="11155.236220" font-size="666.653543" lengthAdjust="spacingAndGlyphs"
text-anchor="middle" opacity="0">File: LV-schematic.kicad_sch</text>
<g class="stroked-text"><desc>File: LV-schematic.kicad_sch</desc>
<path d="M8816 48596
L8650 48596
" />
<path d="M8650 48858
L8650 48358
L8888 48358
" />
<path d="M9078 48858
L9078 48525
" />
<path d="M9078 48358
L9055 48382
L9078 48406
L9102 48382
L9078 48358
L9078 48406
" />
<path d="M9388 48858
L9340 48835
L9316 48787
L9316 48358
" />
<path d="M9769 48835
L9721 48858
L9626 48858
L9578 48835
L9555 48787
L9555 48596
L9578 48549
L9626 48525
L9721 48525
L9769 48549
L9793 48596
L9793 48644
L9555 48692
" />
<path d="M10007 48811
L10031 48835
L10007 48858
L9983 48835
L10007 48811
L10007 48858
" />
<path d="M10007 48549
L10031 48573
L10007 48596
L9983 48573
L10007 48549
L10007 48596
" />
<path d="M10864 48858
L10626 48858
L10626 48358
" />
<path d="M10959 48358
L11126 48858
L11293 48358
" />
<path d="M11459 48668
L11840 48668
" />
<path d="M12055 48835
L12102 48858
L12197 48858
L12245 48835
L12269 48787
L12269 48763
L12245 48715
L12197 48692
L12126 48692
L12078 48668
L12055 48620
L12055 48596
L12078 48549
L12126 48525
L12197 48525
L12245 48549
" />
<path d="M12697 48835
L12650 48858
L12555 48858
L12507 48835
L12483 48811
L12459 48763
L12459 48620
L12483 48573
L12507 48549
L12555 48525
L12650 48525
L12697 48549
" />
<path d="M12912 48858
L12912 48358
" />
<path d="M13126 48858
L13126 48596
L13102 48549
L13055 48525
L12983 48525
L12935 48549
L12912 48573
" />
<path d="M13555 48835
L13507 48858
L13412 48858
L13364 48835
L13340 48787
L13340 48596
L13364 48549
L13412 48525
L13507 48525
L13555 48549
L13578 48596
L13578 48644
L13340 48692
" />
<path d="M13793 48858
L13793 48525
" />
<path d="M13793 48573
L13816 48549
L13864 48525
L13935 48525
L13983 48549
L14007 48596
L14007 48858
" />
<path d="M14007 48596
L14031 48549
L14078 48525
L14150 48525
L14197 48549
L14221 48596
L14221 48858
" />
<path d="M14674 48858
L14674 48596
L14650 48549
L14602 48525
L14507 48525
L14459 48549
" />
<path d="M14674 48835
L14626 48858
L14507 48858
L14459 48835
L14435 48787
L14435 48739
L14459 48692
L14507 48668
L14626 48668
L14674 48644
" />
<path d="M14840 48525
L15031 48525
" />
<path d="M14912 48358
L14912 48787
L14935 48835
L14983 48858
L15031 48858
" />
<path d="M15197 48858
L15197 48525
" />
<path d="M15197 48358
L15174 48382
L15197 48406
L15221 48382
L15197 48358
L15197 48406
" />
<path d="M15650 48835
L15602 48858
L15507 48858
L15459 48835
L15435 48811
L15412 48763
L15412 48620
L15435 48573
L15459 48549
L15507 48525
L15602 48525
L15650 48549
" />
<path d="M15864 48811
L15888 48835
L15864 48858
L15840 48835
L15864 48811
L15864 48858
" />
<path d="M16102 48858
L16102 48358
" />
<path d="M16150 48668
L16293 48858
" />
<path d="M16293 48525
L16102 48715
" />
<path d="M16507 48858
L16507 48525
" />
<path d="M16507 48358
L16483 48382
L16507 48406
L16531 48382
L16507 48358
L16507 48406
" />
<path d="M16959 48835
L16912 48858
L16816 48858
L16769 48835
L16745 48811
L16721 48763
L16721 48620
L16745 48573
L16769 48549
L16816 48525
L16912 48525
L16959 48549
" />
<path d="M17388 48858
L17388 48596
L17364 48549
L17316 48525
L17221 48525
L17174 48549
" />
<path d="M17388 48835
L17340 48858
L17221 48858
L17174 48835
L17150 48787
L17150 48739
L17174 48692
L17221 48668
L17340 48668
L17388 48644
" />
<path d="M17840 48858
L17840 48358
" />
<path d="M17840 48835
L17793 48858
L17697 48858
L17650 48835
L17626 48811
L17602 48763
L17602 48620
L17626 48573
L17650 48549
L17697 48525
L17793 48525
L17840 48549
" />
<path d="M17959 48906
L18340 48906
" />
<path d="M18435 48835
L18483 48858
L18578 48858
L18626 48835
L18650 48787
L18650 48763
L18626 48715
L18578 48692
L18507 48692
L18459 48668
L18435 48620
L18435 48596
L18459 48549
L18507 48525
L18578 48525
L18626 48549
" />
<path d="M19078 48835
L19031 48858
L18935 48858
L18888 48835
L18864 48811
L18840 48763
L18840 48620
L18864 48573
L18888 48549
L18935 48525
L19031 48525
L19078 48549
" />
<path d="M19293 48858
L19293 48358
" />
<path d="M19507 48858
L19507 48596
L19483 48549
L19435 48525
L19364 48525
L19316 48549
L19293 48573
" />
</g></g>
<g style="fill:#FFFFFF; fill-opacity:0.0; 
stroke:#FFFFFF; stroke-width:60.000000; stroke-opacity:1; 
stroke-linecap:round; stroke-linejoin:round;">
</g>
<g style="fill:#FFFFFF; fill-opacity:1.0; 
stroke:#FFFFFF; stroke-width:0.039370; stroke-opacity:1; 
stroke-linecap:round; stroke-linejoin:round;">
<rect x="8500.000000" y="53500.000000" width="65000.000000" height="37000.000000" rx="0.000000" />
</g>
<g style="fill:#840000; fill-opacity:1.0; 
stroke:#840000; stroke-width:0.039370; stroke-opacity:1; 
stroke-linecap:round; stroke-linejoin:round;">
</g>
<g style="fill:#840000; fill-opacity:0.0; 
stroke:#840000; stroke-width:60.000000; stroke-opacity:1; 
stroke-linecap:round; stroke-linejoin:round;">
<rect x="8500.000000" y="53500.000000" width="65000.000000" height="37000.000000" rx="0.000000" />
</g>
<g style="fill:#006464; fill-opacity:0.0; 
stroke:#006464; stroke-width:60.000000; stroke-opacity:1; 
stroke-linecap:round; stroke-linejoin:round;">
<text x="11209.803150" y="53067.322835"
textLength="5417.125984" font-size="666.653543" lengthAdjust="spacingAndGlyphs"
text-anchor="middle" opacity="0">HV-schematic</text>
<g class="stroked-text"><desc>HV-schematic</desc>
<path d="M8650 53043
L8650 52543
" />
<path d="M8650 52781
L8935 52781
" />
<path d="M8935 53043
L8935 52543
" />
<path d="M9102 52543
L9269 53043
L9435 52543
" />
<path d="M9602 52853
L9983 52853
" />
<path d="M10197 53019
L10245 53043
L10340 53043
L10388 53019
L10412 52972
L10412 52948
L10388 52900
L10340 52876
L10269 52876
L10221 52853
L10197 52805
L10197 52781
L10221 52733
L10269 52710
L10340 52710
L10388 52733
" />
<path d="M10840 53019
L10793 53043
L10697 53043
L10650 53019
L10626 52995
L10602 52948
L10602 52805
L10626 52757
L10650 52733
L10697 52710
L10793 52710
L10840 52733
" />
<path d="M11055 53043
L11055 52543
" />
<path d="M11269 53043
L11269 52781
L11245 52733
L11197 52710
L11126 52710
L11078 52733
L11055 52757
" />
<path d="M11697 53019
L11650 53043
L11555 53043
L11507 53019
L11483 52972
L11483 52781
L11507 52733
L11555 52710
L11650 52710
L11697 52733
L11721 52781
L11721 52829
L11483 52876
" />
<path d="M11935 53043
L11935 52710
" />
<path d="M11935 52757
L11959 52733
L12007 52710
L12078 52710
L12126 52733
L12150 52781
L12150 53043
" />
<path d="M12150 52781
L12174 52733
L12221 52710
L12293 52710
L12340 52733
L12364 52781
L12364 53043
" />
<path d="M12816 53043
L12816 52781
L12793 52733
L12745 52710
L12650 52710
L12602 52733
" />
<path d="M12816 53019
L12769 53043
L12650 53043
L12602 53019
L12578 52972
L12578 52924
L12602 52876
L12650 52853
L12769 52853
L12816 52829
" />
<path d="M12983 52710
L13174 52710
" />
<path d="M13055 52543
L13055 52972
L13078 53019
L13126 53043
L13174 53043
" />
<path d="M13340 53043
L13340 52710
" />
<path d="M13340 52543
L13316 52567
L13340 52591
L13364 52567
L13340 52543
L13340 52591
" />
<path d="M13793 53019
L13745 53043
L13650 53043
L13602 53019
L13578 52995
L13555 52948
L13555 52805
L13578 52757
L13602 52733
L13650 52710
L13745 52710
L13793 52733
" />
</g></g>
<g style="fill:#725600; fill-opacity:0.0; 
stroke:#725600; stroke-width:60.000000; stroke-opacity:1; 
stroke-linecap:round; stroke-linejoin:round;">
<text x="14138.385827" y="91382.637795"
textLength="11274.291339" font-size="666.653543" lengthAdjust="spacingAndGlyphs"
text-anchor="middle" opacity="0">File: HV-schematic.kicad_sch</text>
<g class="stroked-text"><desc>File: HV-schematic.kicad_sch</desc>
<path d="M8816 91096
L8650 91096
" />
<path d="M8650 91358
L8650 90858
L8888 90858
" />
<path d="M9078 91358
L9078 91025
" />
<path d="M9078 90858
L9055 90882
L9078 90906
L9102 90882
L9078 90858
L9078 90906
" />
<path d="M9388 91358
L9340 91335
L9316 91287
L9316 90858
" />
<path d="M9769 91335
L9721 91358
L9626 91358
L9578 91335
L9555 91287
L9555 91096
L9578 91049
L9626 91025
L9721 91025
L9769 91049
L9793 91096
L9793 91144
L9555 91192
" />
<path d="M10007 91311
L10031 91335
L10007 91358
L9983 91335
L10007 91311
L10007 91358
" />
<path d="M10007 91049
L10031 91073
L10007 91096
L9983 91073
L10007 91049
L10007 91096
" />
<path d="M10626 91358
L10626 90858
" />
<path d="M10626 91096
L10912 91096
" />
<path d="M10912 91358
L10912 90858
" />
<path d="M11078 90858
L11245 91358
L11412 90858
" />
<path d="M11578 91168
L11959 91168
" />
<path d="M12174 91335
L12221 91358
L12316 91358
L12364 91335
L12388 91287
L12388 91263
L12364 91215
L12316 91192
L12245 91192
L12197 91168
L12174 91120
L12174 91096
L12197 91049
L12245 91025
L12316 91025
L12364 91049
" />
<path d="M12816 91335
L12769 91358
L12674 91358
L12626 91335
L12602 91311
L12578 91263
L12578 91120
L12602 91073
L12626 91049
L12674 91025
L12769 91025
L12816 91049
" />
<path d="M13031 91358
L13031 90858
" />
<path d="M13245 91358
L13245 91096
L13221 91049
L13174 91025
L13102 91025
L13055 91049
L13031 91073
" />
<path d="M13674 91335
L13626 91358
L13531 91358
L13483 91335
L13459 91287
L13459 91096
L13483 91049
L13531 91025
L13626 91025
L13674 91049
L13697 91096
L13697 91144
L13459 91192
" />
<path d="M13912 91358
L13912 91025
" />
<path d="M13912 91073
L13935 91049
L13983 91025
L14055 91025
L14102 91049
L14126 91096
L14126 91358
" />
<path d="M14126 91096
L14150 91049
L14197 91025
L14269 91025
L14316 91049
L14340 91096
L14340 91358
" />
<path d="M14793 91358
L14793 91096
L14769 91049
L14721 91025
L14626 91025
L14578 91049
" />
<path d="M14793 91335
L14745 91358
L14626 91358
L14578 91335
L14555 91287
L14555 91239
L14578 91192
L14626 91168
L14745 91168
L14793 91144
" />
<path d="M14959 91025
L15150 91025
" />
<path d="M15031 90858
L15031 91287
L15055 91335
L15102 91358
L15150 91358
" />
<path d="M15316 91358
L15316 91025
" />
<path d="M15316 90858
L15293 90882
L15316 90906
L15340 90882
L15316 90858
L15316 90906
" />
<path d="M15769 91335
L15721 91358
L15626 91358
L15578 91335
L15555 91311
L15531 91263
L15531 91120
L15555 91073
L15578 91049
L15626 91025
L15721 91025
L15769 91049
" />
<path d="M15983 91311
L16007 91335
L15983 91358
L15959 91335
L15983 91311
L15983 91358
" />
<path d="M16221 91358
L16221 90858
" />
<path d="M16269 91168
L16412 91358
" />
<path d="M16412 91025
L16221 91215
" />
<path d="M16626 91358
L16626 91025
" />
<path d="M16626 90858
L16602 90882
L16626 90906
L16650 90882
L16626 90858
L16626 90906
" />
<path d="M17078 91335
L17031 91358
L16935 91358
L16888 91335
L16864 91311
L16840 91263
L16840 91120
L16864 91073
L16888 91049
L16935 91025
L17031 91025
L17078 91049
" />
<path d="M17507 91358
L17507 91096
L17483 91049
L17435 91025
L17340 91025
L17293 91049
" />
<path d="M17507 91335
L17459 91358
L17340 91358
L17293 91335
L17269 91287
L17269 91239
L17293 91192
L17340 91168
L17459 91168
L17507 91144
" />
<path d="M17959 91358
L17959 90858
" />
<path d="M17959 91335
L17912 91358
L17816 91358
L17769 91335
L17745 91311
L17721 91263
L17721 91120
L17745 91073
L17769 91049
L17816 91025
L17912 91025
L17959 91049
" />
<path d="M18078 91406
L18459 91406
" />
<path d="M18555 91335
L18602 91358
L18697 91358
L18745 91335
L18769 91287
L18769 91263
L18745 91215
L18697 91192
L18626 91192
L18578 91168
L18555 91120
L18555 91096
L18578 91049
L18626 91025
L18697 91025
L18745 91049
" />
<path d="M19197 91335
L19150 91358
L19055 91358
L19007 91335
L18983 91311
L18959 91263
L18959 91120
L18983 91073
L19007 91049
L19055 91025
L19150 91025
L19197 91049
" />
<path d="M19412 91358
L19412 90858
" />
<path d="M19626 91358
L19626 91096
L19602 91049
L19555 91025
L19483 91025
L19435 91049
L19412 91073
" />
</g></g> 
</svg>
